<svg width="21" height="21" viewBox="0 0 21 21" fill="none" xmlns="http://www.w3.org/2000/svg">
<path d="M10.5 21C16.299 21 21 16.299 21 10.5C21 4.70101 16.299 0 10.5 0C4.70101 0 0 4.70101 0 10.5C0 16.299 4.70101 21 10.5 21Z" fill="#662d91"/>
<path d="M13.27 10.02H7.72998V10.98H13.27V10.02Z" fill="white"/>
<path d="M14.8302 15.24H6.1702C5.3602 15.24 4.7002 14.58 4.7002 13.77V7.23001C4.7002 6.42001 5.3602 5.76001 6.1702 5.76001H14.8302C15.6402 5.76001 16.3002 6.42001 16.3002 7.23001V13.76C16.3002 14.57 15.6402 15.23 14.8302 15.23V15.24ZM6.1702 6.76001C5.9102 6.76001 5.7002 6.97001 5.7002 7.23001V13.76C5.7002 14.02 5.9102 14.23 6.1702 14.23H14.8302C15.0902 14.23 15.3002 14.02 15.3002 13.76V7.23001C15.3002 6.97001 15.0902 6.76001 14.8302 6.76001H6.1702Z" fill="white"/>
<defs>

</defs>
</svg>
