<svg width="14" height="14" viewBox="0 0 14 14" fill="none" xmlns="http://www.w3.org/2000/svg">
<path d="M7.425 12.9456C7.30457 12.8252 7.14802 12.765 6.97942 12.765C5.11284 12.765 3.36667 11.8498 2.28285 10.2963C1.3917 9.00774 1.06656 7.51447 1.34353 5.97303C1.54826 4.84104 2.06608 3.80539 2.84885 2.99854L3.11378 2.7336L3.02948 4.16666C3.0054 4.52793 3.27033 4.81696 3.61957 4.84104C3.9688 4.84104 4.24578 4.58815 4.26986 4.25096L4.42641 1.44506C4.42641 1.27646 4.37824 1.10787 4.26986 0.975398C4.16148 0.854973 4.00493 0.782718 3.83633 0.770676L1.01839 0.614123C0.861834 0.602081 0.717324 0.650251 0.596899 0.746591C0.464431 0.867016 0.380134 1.03561 0.368091 1.20421C0.344006 1.52935 0.620984 1.83042 0.970216 1.87859L2.17447 1.9388L1.9577 2.15556C0.994301 3.14305 0.356049 4.39547 0.115199 5.78035C-0.221991 7.61081 0.187454 9.46536 1.25924 11.0068C2.57187 12.8854 4.70339 14.0054 6.97942 14.0054C7.31661 14.0054 7.59359 13.7284 7.59359 13.4033C7.59359 13.2226 7.54542 13.0781 7.425 12.9577V12.9456Z" fill="#662d91"/>
<path d="M13.061 12.0305H11.8809L12.0976 11.7896C14.3616 9.39315 14.6386 5.68406 12.7479 2.99858C11.4473 1.11995 9.29172 0 6.9916 0C6.63033 0 6.34131 0.264935 6.34131 0.614167C6.34131 0.963399 6.63033 1.24038 6.97956 1.24038C8.87023 1.24038 10.6405 2.15561 11.7243 3.69705C13.3019 5.96104 13.0369 9.04392 11.1101 11.0309L10.8693 11.2838V9.82668C10.8813 9.47745 10.6044 9.20047 10.2551 9.17638C9.91793 9.17638 9.64095 9.4654 9.64095 9.80259L9.60483 12.6205C9.60483 12.7891 9.67708 12.9577 9.77342 13.0541C9.89385 13.1865 10.0384 13.2467 10.219 13.2467L13.049 13.2949C13.3982 13.2949 13.6752 13.0179 13.6752 12.6687C13.6752 12.3315 13.4103 12.0545 13.061 12.0305Z" fill="#662d91"/>
</svg>
