<svg width="24" height="24" viewBox="0 1 24 24" fill="none" xmlns="http://www.w3.org/2000/svg">
<path d="M17.2 4H7.60001C6.20001 4 5 5.20001 5 6.60001V20.3C5 21 5.4 21.6 6 21.8C6.2 21.9 6.4 21.9 6.7 21.9C7.1 21.9 7.5 21.8 7.8 21.5L12.3 17.5C12.4 17.5 12.6 17.5 12.7 17.5L17.2 21.5C17.7 21.9 18.3 22 18.9 21.8C19.5 21.5 19.9 20.9 19.9 20.3V6.60001C19.9 5.20001 18.8 4 17.3 4H17.2ZM6.5 20.6C6.4 20.6 6.3 20.4 6.3 20.3V6.60001C6.3 5.90001 6.90001 5.3 7.60001 5.3H17.2C17.9 5.3 18.5 5.90001 18.5 6.60001V20.3C18.5 20.4 18.5 20.5 18.3 20.6C18.3 20.6 18.1 20.6 18 20.6L13.5 16.6C13.2 16.3 12.8 16.2 12.4 16.2C12 16.2 11.6 16.3 11.3 16.6L6.8 20.6C6.8 20.6 6.6 20.6 6.5 20.6Z" fill="#999"/>
</svg>
