<svg width="24" height="24" viewBox="0 0 24 24" fill="none" xmlns="http://www.w3.org/2000/svg">
<path d="M16.75 3H7.15C5.75 3 4.55 4.2 4.55 5.6V19.4C4.55 20.1 4.95 20.7 5.55 20.9C5.75 21 5.95 21 6.25 21C6.55 21 7.05 20.9 7.35 20.6L11.85 16.6H12.25L16.75 20.6C17.25 21 17.85 21.1 18.45 20.9C19.05 20.6 19.45 20 19.45 19.4V5.6C19.45 4.2 18.35 3 16.85 3H16.75ZM6.05 19.7C6.05 19.7 5.85 19.5 5.85 19.4V5.6C5.85 4.9 6.45 4.3 7.15 4.3H16.85C17.55 4.3 18.15 4.9 18.15 5.6V19.4C18.15 19.5 18.15 19.6 17.95 19.7H17.65L13.15 15.7C12.85 15.4 12.45 15.3 12.05 15.3C11.65 15.3 11.25 15.3 10.95 15.7L6.45 19.7H6.05Z" fill="#fff"/>
</svg>
