<?xml version="1.0" encoding="UTF-8"?>
<svg id="Layer_1" xmlns="http://www.w3.org/2000/svg" version="1.1" viewBox="0 0 24 24">
  <!-- Generator: Adobe Illustrator 29.8.1, SVG Export Plug-In . SVG Version: 2.1.1 Build 2)  -->
  <defs>
    <style>
      .st0 {
        fill: #ccc;
      }
      .st1 {
        fill: #662d91
      }
    </style>
  </defs>
  <path class="st1" d="M16.8,4.3H7.1c-.7,0-1.3.6-1.3,1.3v13.8c0,.1.1.3.2.3h.3l4.5-4c.3-.3.7-.4,1.1-.4s.8.1,1.1.4l4.5,4h.3c.2-.1.2-.2.2-.3V5.6c0-.7-.6-1.3-1.3-1.3Z"/>
  <path class="st0" d="M16.9,3H7.1c-1.4,0-2.6,1.2-2.6,2.6v13.8c0,.7.4,1.3,1,1.5.2.1.4.1.7.1s.8-.1,1.1-.4l4.5-4h.4l4.5,4c.5.4,1.1.5,1.7.3.6-.3,1-.9,1-1.5V5.6c0-1.4-1.1-2.6-2.6-2.6ZM18.1,19.4c0,.1,0,.2-.2.3h-.3l-4.5-4c-.3-.3-.7-.4-1.1-.4s-.8.1-1.1.4l-4.5,4h-.3c-.1,0-.2-.2-.2-.3V5.6c0-.7.6-1.3,1.3-1.3h9.7c.7,0,1.3.6,1.3,1.3v13.8Z"/>
</svg>