<svg width="24" height="24" viewBox="0 0 24 24" fill="none" xmlns="http://www.w3.org/2000/svg">
<path d="M16.8 4.4H7.1C6.4 4.4 5.8 5 5.8 5.7V19.5L6 19.8H6.4L10.9 15.8C11.2 15.4 11.6 15.4 12 15.4C12.4 15.4 12.8 15.5 13.1 15.8L17.6 19.8H17.9C18.1 19.8 18.1 19.6 18.1 19.5V5.7C18.1 5 17.5 4.4 16.8 4.4Z" fill="#662d91"/>
<path d="M16.85 3.05H7.15C5.75 3.05 4.55 4.25 4.55 5.65V19.45C4.55 20.15 4.95 20.75 5.55 20.95H6.25C6.55 20.95 7.05 20.95 7.35 20.55L11.85 16.55H12.25L16.75 20.55C17.25 20.95 17.85 21.05 18.45 20.85C19.05 20.55 19.45 19.95 19.45 19.35V5.65C19.45 4.25 18.35 3.05 16.85 3.05ZM18.15 19.35C18.15 19.35 18.15 19.55 17.95 19.65H17.65L13.15 15.65C12.85 15.35 12.45 15.25 12.05 15.25C11.65 15.25 11.25 15.25 10.95 15.65L6.45 19.65H6.05C6.05 19.65 5.85 19.45 5.85 19.35V5.65C5.85 4.95 6.45 4.35 7.15 4.35H16.85C17.55 4.35 18.15 4.95 18.15 5.65V19.45V19.35Z" fill="#ffffff"/>
</svg>
